<?xml version="1.0" encoding="utf-8"?>
<!-- Generator: Adobe Illustrator 25.2.1, SVG Export Plug-In . SVG Version: 6.00 Build 0)  -->
<!DOCTYPE svg PUBLIC "-//W3C//DTD SVG 1.1//EN" "http://www.w3.org/Graphics/SVG/1.1/DTD/svg11.dtd" [
	<!ENTITY ns_extend "http://ns.adobe.com/Extensibility/1.0/">
	<!ENTITY ns_ai "http://ns.adobe.com/AdobeIllustrator/10.0/">
	<!ENTITY ns_graphs "http://ns.adobe.com/Graphs/1.0/">
	<!ENTITY ns_vars "http://ns.adobe.com/Variables/1.0/">
	<!ENTITY ns_imrep "http://ns.adobe.com/ImageReplacement/1.0/">
	<!ENTITY ns_sfw "http://ns.adobe.com/SaveForWeb/1.0/">
	<!ENTITY ns_custom "http://ns.adobe.com/GenericCustomNamespace/1.0/">
	<!ENTITY ns_adobe_xpath "http://ns.adobe.com/XPath/1.0/">
]>
<svg version="1.1" id="Capa_1" xmlns:x="&ns_extend;" xmlns:i="&ns_ai;" xmlns:graph="&ns_graphs;"
	 xmlns="http://www.w3.org/2000/svg" xmlns:xlink="http://www.w3.org/1999/xlink" x="0px" y="0px" viewBox="0 0 512 512"
	 style="enable-background:new 0 0 512 512;" xml:space="preserve">
<style type="text/css">
	.st0{display:none;}
	.st1{display:inline;fill:url(#SVGID_1_);}
	.st2{fill:url(#SVGID_2_);}
</style>
<metadata>
	<sfw  xmlns="&ns_sfw;">
		<slices></slices>
		<sliceSourceBounds  bottomLeftOrigin="true" height="512" width="512" x="0" y="0"></sliceSourceBounds>
	</sfw>
</metadata>
<g>
	<g class="st0">
		
			<linearGradient id="SVGID_1_" gradientUnits="userSpaceOnUse" x1="256" y1="2" x2="256" y2="514" gradientTransform="matrix(1 0 0 -1 0 514)">
			<stop  offset="0" style="stop-color:#FFE59A"/>
			<stop  offset="1" style="stop-color:#FFFFD5"/>
		</linearGradient>
		<circle class="st1" cx="256" cy="256" r="256"/>
	</g>
	<g>
		<g>
			<linearGradient id="SVGID_2_" gradientUnits="userSpaceOnUse" x1="256" y1="353.4997" x2="256" y2="158.4993">
				<stop  offset="0" style="stop-color:#F9EEF6"/>
				<stop  offset="1" style="stop-color:#5D5351"/>
			</linearGradient>
			<path class="st2" d="M403.2,195.4c-3-2.1-7-2.2-10-0.1l-50.4,33.6c-2,1.3-3.3,3.3-3.8,5.6c-0.5,2.3,0,4.7,1.3,6.7
				c2.9,4.4,4.5,9.5,4.5,14.7c0,14.7-12,26.6-26.6,26.6s-26.6-11.9-26.6-26.6c0-8.6,4.3-16.8,11.4-21.8c4-2.8,5-8.3,2.2-12.3
				l-41.8-59.7c-3.3-4.7-11.2-4.7-14.6,0l-41.8,59.7c-2.8,4-1.8,9.5,2.2,12.3c7.1,5,11.4,13.1,11.4,21.8c0,14.7-12,26.6-26.6,26.6
				s-26.6-11.9-26.6-26.6c0-5.3,1.6-10.4,4.5-14.7c1.3-2,1.8-4.4,1.3-6.7c-0.5-2.3-1.8-4.3-3.8-5.6l-50.4-33.6c-3.1-2-7.1-2-10,0.1
				c-3,2.1-4.4,5.8-3.5,9.4l35.5,142c1.1,4.5,5.6,7.4,10.1,6.6c69.8-11.6,140.5-11.6,210.3,0c4.4,0.8,8.9-2,10.1-6.6l35.5-142
				C407.6,201.2,406.2,197.5,403.2,195.4L403.2,195.4z"/>
		</g>
	</g>
</g>
</svg>
