<svg id="Capa_1" enable-background="new 0 0 512 512" height="512" viewBox="0 0 512 512" width="512" xmlns="http://www.w3.org/2000/svg" xmlns:xlink="http://www.w3.org/1999/xlink"><linearGradient id="SVGID_1_" gradientUnits="userSpaceOnUse" x1="256" x2="256" y1="512" y2="0"><stop offset="0" stop-color="#ffe59a"/><stop offset="1" stop-color="#ffffd5"/></linearGradient><linearGradient id="SVGID_2_" gradientUnits="userSpaceOnUse" x1="256" x2="256" y1="353.5" y2="158.5"><stop offset="0" stop-color="#ffde00"/><stop offset="1" stop-color="#fd5900"/></linearGradient><g><g><circle cx="256" cy="256" fill="url(#SVGID_1_)" r="256"/></g><g><g><path d="m403.237 195.388c-3.019-2.123-7.009-2.175-10.045-.13l-50.389 33.56c-1.96 1.309-3.322 3.336-3.782 5.65-.46 2.305.017 4.705 1.318 6.664 2.932 4.385 4.485 9.48 4.485 14.748 0 14.679-11.953 26.62-26.647 26.62s-26.647-11.941-26.647-26.62c0-8.631 4.259-16.767 11.398-21.776 4.016-2.807 4.988-8.336 2.177-12.348l-41.827-59.695c-3.331-4.749-11.225-4.749-14.556 0l-41.827 59.695c-2.81 4.012-1.839 9.541 2.177 12.348 7.139 5.009 11.398 13.145 11.398 21.776 0 14.679-11.953 26.62-26.647 26.62s-26.647-11.941-26.647-26.62c0-5.269 1.553-10.364 4.485-14.748 1.301-1.958 1.778-4.359 1.318-6.664-.46-2.314-1.822-4.341-3.782-5.65l-50.389-33.56c-3.053-2.045-7.052-1.993-10.045.13-3.001 2.114-4.389 5.849-3.496 9.402l35.53 141.971c1.119 4.489 5.552 7.417 10.071 6.603 69.758-11.611 140.505-11.611 210.264 0 4.377.781 8.924-2 10.071-6.603l35.53-141.971c.893-3.553-.495-7.288-3.496-9.402z" fill="url(#SVGID_2_)"/></g></g></g></svg>