<svg height="512pt" viewBox="-49 0 512 512.001" width="512pt" xmlns="http://www.w3.org/2000/svg"><path d="m79.171875 219.871094c-33.898437 0-61.378906 27.484375-61.378906 61.382812 0 31.328125 23.476562 57.15625 53.792969 60.894532 7.820312 24.910156 31.082031 42.984374 58.574218 42.984374h160.800782c27.984374 0 51.578124-18.738281 58.964843-44.34375 26.664063-6.683593 46.414063-30.800781 46.414063-59.535156 0-33.898437-27.480469-61.378906-61.378906-61.378906h-255.789063zm0 0" fill="#e3e3e3"/><path d="m406.632812 243.523438c0 18.984374-15.386718 34.371093-34.367187 34.371093s-34.367187-15.386719-34.367187-34.371093c0-18.980469 15.386718-34.367188 34.367187-34.367188s34.367187 15.386719 34.367187 34.367188zm0 0" fill="#ffcbbe"/><path d="m76.238281 243.523438c0 18.984374-15.390625 34.371093-34.371093 34.371093-18.980469 0-34.367188-15.386719-34.367188-34.371093 0-18.980469 15.386719-34.367188 34.367188-34.367188 18.980468 0 34.371093 15.386719 34.371093 34.367188zm0 0" fill="#ffc0b3"/><path d="m45.683594 504.5c0-89.128906 72.253906-161.382812 161.382812-161.382812s161.382813 72.253906 161.382813 161.382812zm0 0" fill="#f8ea69"/><path d="m227.066406 344.351562c-6.554687-.808593-13.226562-1.234374-20-1.234374-89.128906 0-161.382812 72.253906-161.382812 161.382812h40c0-82.355469 61.691406-150.296875 141.382812-160.148438zm0 0" fill="#eedb00"/><path d="m284.515625 362.890625c-22.992187-12.601563-49.382813-19.773437-77.449219-19.773437s-54.457031 7.171874-77.449218 19.773437c2.84375 40.304687 36.417968 72.128906 77.449218 72.128906 41.027344 0 74.605469-31.824219 77.449219-72.128906zm0 0" fill="#ffc0b3"/><path d="m86.476562 397.265625 119.542969 107.234375h106.589844l-166.582031-149.425781c-22.976563 9.394531-43.304688 23.9375-59.550782 42.191406zm0 0" fill="#fb695b"/><path d="m160.652344 368.1875-14.621094-13.113281c-22.980469 9.394531-43.308594 23.9375-59.554688 42.191406l23.894532 21.433594c12.792968-20.339844 30-37.628907 50.28125-50.511719zm0 0" fill="#f85647"/><path d="m380.441406 195.878906c0 95.75-77.621094 173.375-173.375 173.375s-173.378906-77.625-173.378906-173.375c0-95.753906 77.625-173.378906 173.378906-173.378906s173.375 77.625 173.375 173.378906zm0 0" fill="#ffddcf"/><path d="m73.691406 195.878906c0-88.988281 67.042969-162.304687 153.375-172.222656-6.5625-.753906-13.234375-1.15625-20-1.15625-95.753906 0-173.375 77.621094-173.375 173.378906 0 95.753906 77.621094 173.375 173.375 173.375 6.765625 0 13.4375-.402344 20-1.15625-86.332031-9.917968-153.375-83.234375-153.375-172.21875zm0 0" fill="#ffcbbe"/><path d="m390.558594 153.183594c-19.390625-83.375-94.300782-145.683594-183.492188-145.683594s-164.105468 62.308594-183.496094 145.683594c-9.636718 5.898437-16.070312 16.519531-16.070312 28.648437 0 18.535157 15.027344 33.5625 33.5625 33.5625 4.289062 0 8.390625-.816406 12.160156-2.28125 8.117188 6.601563 18.46875 10.566407 29.75 10.566407 26.058594 0 47.1875-21.128907 47.1875-47.1875 0-1.363282-.082031-2.710938-.199218-4.042969 17.5625 14.179687 45.5625 23.355469 77.105468 23.355469 31.542969 0 59.542969-9.175782 77.105469-23.355469-.117187 1.332031-.195313 2.679687-.195313 4.042969 0 26.058593 21.125 47.1875 47.1875 47.1875 11.28125 0 21.628907-3.964844 29.746094-10.566407 3.773438 1.464844 7.871094 2.28125 12.164063 2.28125 18.535156 0 33.558593-15.027343 33.558593-33.5625 0-12.128906-6.433593-22.75-16.074218-28.648437zm0 0" fill="#f4f4f4"/><path d="m58.691406 195.878906c0-97.121094 73.878906-177.304687 168.386719-187.316406-6.578125-.699219-13.253906-1.0625-20.011719-1.0625-89.191406 0-164.105468 62.308594-183.496094 145.683594-9.636718 5.898437-16.070312 16.519531-16.070312 28.648437 0 18.535157 15.027344 33.5625 33.5625 33.5625 4.289062 0 8.390625-.816406 12.160156-2.28125 2.101563 1.707031 4.359375 3.238281 6.738282 4.570313-.832032-7.15625-1.269532-14.429688-1.269532-21.804688zm0 0" fill="#e3e3e3"/><path d="m385.984375 7.5c-3.1875 0-5.84375 2.464844-6.058594 5.644531-2.898437 43.503907-39.109375 77.890625-83.347656 77.890625s-80.445313-34.386718-83.347656-77.890625c-.214844-3.179687-2.871094-5.644531-6.058594-5.644531h-.210937c-3.1875 0-5.847657 2.464844-6.058594 5.644531-2.902344 43.503907-39.109375 77.890625-83.347656 77.890625-44.238282 0-80.445313-34.386718-83.347657-77.890625-.214843-3.179687-2.871093-5.644531-6.058593-5.644531-3.359376 0-6.082032 2.722656-6.082032 6.082031v140.667969h370v-140.667969c0-3.359375-2.722656-6.082031-6.082031-6.082031zm0 0" fill="#f4e74d"/><path d="m34.207031 13.144531c-.214843-3.179687-2.871093-5.644531-6.058593-5.644531-3.359376 0-6.082032 2.722656-6.082032 6.082031v140.667969h40v-84.332031c-15.886718-14.132813-26.355468-34.21875-27.859375-56.773438zm0 0" fill="#f1e12b"/><path d="m276.433594 251.574219h-11.355469c-4.144531 0-7.5-3.355469-7.5-7.5 0-4.140625 3.355469-7.5 7.5-7.5h11.355469c4.140625 0 7.5 3.359375 7.5 7.5 0 4.144531-3.359375 7.5-7.5 7.5zm0 0" fill="#fb695b"/><path d="m149.054688 251.574219h-11.355469c-4.144531 0-7.5-3.355469-7.5-7.5 0-4.140625 3.355469-7.5 7.5-7.5h11.355469c4.140624 0 7.5 3.359375 7.5 7.5 0 4.144531-3.359376 7.5-7.5 7.5zm0 0" fill="#fb695b"/><path d="m227.5625 235.683594c-3.589844-2.066406-8.175781-.828125-10.238281 2.761718-2.109375 3.667969-6.039063 5.941407-10.257813 5.941407-4.222656 0-8.148437-2.277344-10.257812-5.941407-2.066406-3.589843-6.648438-4.828124-10.238282-2.761718-3.59375 2.0625-4.828124 6.648437-2.765624 10.238281 4.773437 8.304687 13.6875 13.464844 23.261718 13.464844 9.570313 0 18.484375-5.160157 23.261719-13.464844 2.0625-3.589844.824219-8.175781-2.765625-10.238281zm0 0"/><path d="m270.753906 203.753906c-4.140625 0-7.5 3.359375-7.5 7.5v11.355469c0 4.144531 3.359375 7.5 7.5 7.5 4.144532 0 7.5-3.355469 7.5-7.5v-11.355469c0-4.140625-3.355468-7.5-7.5-7.5zm0 0"/><path d="m143.375 203.753906c-4.140625 0-7.5 3.359375-7.5 7.5v11.355469c0 4.144531 3.359375 7.5 7.5 7.5 4.144531 0 7.5-3.355469 7.5-7.5v-11.355469c0-4.140625-3.355469-7.5-7.5-7.5zm0 0"/><path d="m400.367188 212.46875c8.4375-7.523438 13.765624-18.46875 13.765624-30.636719 0-12.136719-5.390624-23.578125-14.566406-31.34375v-136.90625c0-7.488281-6.09375-13.582031-13.582031-13.582031-7.121094 0-13.066406 5.554688-13.539063 12.644531-1.285156 19.265625-9.789062 36.492188-22.738281 49.148438-36.980469-39.320313-88.46875-61.7500002-142.492187-61.78906275-.015625 0-.027344-.00390625-.042969-.00390625h-.210937c-.011719 0-.027344.00390625-.039063.00390625-54.023437.03906255-105.515625 22.46874975-142.5 61.78515575-12.945313-12.652343-21.449219-29.878906-22.734375-49.144531-.472656-7.089843-6.417969-12.644531-13.539062-12.644531-7.488282 0-13.582032 6.09375-13.582032 13.582031v136.90625c-9.175781 7.765625-14.566406 19.207031-14.566406 31.34375 0 12.183594 5.339844 23.136719 13.796875 30.664063-8.613281 7.839844-13.796875 19.109375-13.796875 31.03125 0 10.855468 4.15625 20.757812 10.957031 28.203125-.4375 3.148437-.664062 6.335937-.664062 9.523437 0 33.128906 23.636719 61.398438 55.710937 67.601563 5.136719 13.109375 14.222656 24.34375 25.878906 32.15625-3.753906 3.507812-7.332031 7.175781-10.738281 10.996093-.082031.085938-.171875.164063-.25.253907-.105469.113281-.195312.234375-.289062.355469-26.789063 30.332031-42.421875 69.921874-42.421875 111.882812 0 4.144531 3.359375 7.5 7.5 7.5h322.765625c4.140625 0 7.5-3.355469 7.5-7.5 0-46.261719-18.976563-89.613281-50.957031-120.875 14.234374-8.128906 25.285156-21.1875 30.835937-36.71875 28.476563-9.007812 48.011719-35.425781 48.011719-65.652344 0-3.1875-.230469-6.371094-.664063-9.515625 6.800781-7.449219 10.957031-17.351562 10.957031-28.210937 0-12.089844-5.09375-23.246094-13.765624-31.058594zm-1.234376 31.054688c0 14.816406-12.054687 26.871093-26.867187 26.871093-.113281 0-.226563-.011719-.339844-.015625 7.089844-15.679687 11.9375-32.386718 14.316407-49.664062.042968-.015625.089843-.03125.132812-.046875 7.921875 4.878906 12.757812 13.425781 12.757812 22.855469zm-220.140624 131.042968c9.164062 1.433594 18.539062 2.1875 28.074218 2.1875 22.324219 0 44.195313-4.101562 64.636719-11.917968 1.625.753906 3.230469 1.53125 4.820313 2.335937-3.496094 25.164063-20.167969 46.277344-43.875 55.527344zm28.074218-12.8125c-81.519531 0-150.707031-59.261718-163.695312-138.9375 2.875-.160156 5.710937-.609375 8.480468-1.363281 9.101563 6.292969 20 9.722656 31.121094 9.722656 26.847656 0 49.238282-19.445312 53.824219-44.992187 18.941406 10.984375 43.773437 17.121094 70.269531 17.121094 26.5 0 51.332032-6.136719 70.269532-17.121094 4.589843 25.546875 26.980468 44.992187 53.828124 44.992187 11.117188 0 22.019532-3.429687 31.121094-9.722656 2.765625.753906 5.601563 1.203125 8.476563 1.363281-12.964844 79.808594-81.820313 138.9375-163.695313 138.9375zm130.90625-290.542968c-11.957031 7.792968-26.195312 12.324218-41.394531 12.324218-38.914063 0-71.5625-29.636718-75.601563-67.988281 44.402344 3.433594 86.082032 23.21875 116.996094 55.664063zm-144.816406-55.664063c-4.039062 38.351563-36.691406 67.988281-75.601562 67.988281-15.199219 0-29.4375-4.53125-41.398438-12.324218 30.917969-32.445313 72.597656-52.230469 117-55.664063zm-163.589844 15.367187c4.929688 18.503907 15.5625 34.644532 29.824219 46.515626.191406.210937.394531.417968.617187.609374.359376.3125.738282.578126 1.132813.808594 15.578125 12.332032 35.21875 19.6875 56.414063 19.6875 44.179687 0 81.632812-31.910156 89.511718-74.375 7.882813 42.464844 45.335938 74.375 89.515625 74.375 21.179688 0 40.804688-7.34375 56.375-19.65625.410157-.238281.800781-.515625 1.171875-.835937.222656-.195313.433594-.40625.628906-.621094 14.253907-11.875 24.882813-28.011719 29.808594-46.507813v115.835938h-32.667968c-4.144532 0-7.5 3.359375-7.5 7.5s3.355468 7.5 7.5 7.5h37.765624c5.960938 4.933594 9.46875 12.285156 9.46875 20.082031 0 12.675781-9.097656 23.257813-21.101562 25.582031-.03125.003907-.058594.007813-.085938.015626-1.578124.300781-3.207031.464843-4.875.464843-3.242187 0-6.417968-.597656-9.4375-1.773437-2.515624-.976563-5.359374-.53125-7.453124 1.171875-7.144532 5.8125-15.796876 8.882812-25.015626 8.882812-21.882812 0-39.6875-17.800781-39.6875-39.6875 0-.988281.054688-2.066406.167969-3.390625.261719-2.996094-1.292969-5.859375-3.945312-7.269531-2.65625-1.414063-5.898438-1.105469-8.238281.785156-16.820313 13.582031-43.886719 21.691407-72.394532 21.691407-28.507812 0-55.570312-8.109376-72.394531-21.691407-2.339844-1.890625-5.578125-2.199219-8.234375-.785156-2.652344 1.410156-4.207031 4.273437-3.945312 7.269531.113281 1.324219.167968 2.402344.167968 3.390625 0 21.882813-17.804687 39.6875-39.6875 39.6875-9.222656 0-17.871094-3.070312-25.015625-8.882812-2.09375-1.703125-4.941406-2.148438-7.453125-1.171875-3.019531 1.175781-6.195312 1.773437-9.441406 1.773437-14.371094 0-26.0625-11.691406-26.0625-26.0625 0-7.800781 3.507812-15.148437 9.46875-20.082031h299.429688c4.140624 0 7.5-3.359375 7.5-7.5s-3.359376-7.5-7.5-7.5h-294.332032zm-1.675781 189.800782c2.40625 17.527344 7.292969 34.199218 14.285156 49.667968-.101562 0-.203125.011719-.308593.011719-14.816407 0-26.867188-12.054687-26.867188-26.867187 0-9.3125 4.9375-18 12.765625-22.855469.042969.011719.085937.027344.125.042969zm50.851563 119.1875c-.878907-2.804688-3.316407-4.835938-6.238282-5.195313-26.675781-3.292969-46.835937-25.898437-47.195312-52.734375 5.082031 2.199219 10.679687 3.421875 16.558594 3.421875 2.554687 0 5.082031-.238281 7.570312-.691406 17.496094 30.984375 43.824219 56.132813 75.378906 72.265625-7.363281 4.109375-14.351562 8.734375-20.925781 13.816406-11.960937-6.695312-21.03125-17.761718-25.148437-30.882812zm8.496093 68.125 51.453125 46.152344c1.433594 1.285156 3.222656 1.917968 5.007813 1.917968 2.054687 0 4.101562-.839844 5.585937-2.492187 2.765625-3.082031 2.507813-7.824219-.578125-10.589844l-51.515625-46.214844c12.816406-13.101562 28.0625-24.011719 45.25-31.972656 1.820313.699219 3.660156 1.359375 5.507813 2 .140625.148437.28125.292969.433593.429687l144.632813 129.742188h-84.125l-39.285156-35.238281c-3.082031-2.769531-7.824219-2.507813-10.59375.574219-2.765625 3.082031-2.507813 7.824218.578125 10.589843l26.835937 24.074219h-133.058593c1.609374-32.980469 13.804687-64.007812 33.871093-88.972656zm273.527344 88.972656h-45.285156l-70.589844-63.320312c11.203125-5.550782 21.0625-13.527344 28.949219-23.480469 8.207031-10.367188 13.804687-22.335938 16.507812-35.101563 41.4375 26.710938 67.984375 72.0625 70.417969 121.902344zm-12.664063-163.488281c-2.589843.648437-4.640624 2.628906-5.382812 5.195312-4.382812 15.199219-15.386719 27.785157-29.75 34.234375-7.355469-5.933594-15.25-11.28125-23.636719-15.964844 13.972657-7.136718 27.066407-16.117187 38.917969-26.820312 14.652344-13.230469 26.898438-28.605469 36.410156-45.457031 2.496094.457031 5.039063.695312 7.601563.695312 5.882812 0 11.480469-1.226562 16.5625-3.421875-.320313 24.453125-16.96875 45.585938-40.722657 51.539063zm0 0"/></svg>