<svg height="512pt" viewBox="-50 0 512 512" width="512pt" xmlns="http://www.w3.org/2000/svg"><path d="m73.835938 218.78125c-34.921876 0-63.230469 28.3125-63.230469 63.234375 0 32.273437 24.183593 58.882813 55.414062 62.734375 8.054688 25.660156 32.019531 44.277344 60.339844 44.277344h165.65625c28.828125 0 53.136719-19.300782 60.746094-45.679688 27.46875-6.886718 47.8125-31.730468 47.8125-61.332031 0-34.921875-28.308594-63.234375-63.230469-63.234375zm0 0" fill="#e3e3e3"/><path d="m411.179688 243.148438c0 19.554687-15.851563 35.40625-35.40625 35.40625-19.554688 0-35.40625-15.851563-35.40625-35.40625 0-19.554688 15.851562-35.40625 35.40625-35.40625 19.554687 0 35.40625 15.851562 35.40625 35.40625zm0 0" fill="#ffcbbe"/><path d="m70.8125 243.148438c0 19.554687-15.851562 35.40625-35.40625 35.40625s-35.40625-15.851563-35.40625-35.40625c0-19.554688 15.851562-35.40625 35.40625-35.40625s35.40625 15.851562 35.40625 35.40625zm0 0" fill="#ffc0b3"/><path d="m39.335938 512c0-91.820312 74.433593-166.253906 166.253906-166.253906 91.816406 0 166.25 74.433594 166.25 166.253906zm0 0" fill="#f8ea69"/><path d="m226.191406 347.019531c-6.75-.835937-13.625-1.273437-20.601562-1.273437-91.820313 0-166.253906 74.4375-166.253906 166.253906h41.207031c0-84.839844 63.554687-154.832031 145.648437-164.980469zm0 0" fill="#f1e12b"/><path d="m285.375 366.117188c-23.683594-12.980469-50.871094-20.371094-79.785156-20.371094-28.914063 0-56.101563 7.390625-79.789063 20.371094 2.929688 41.523437 37.519531 74.304687 79.789063 74.304687 42.269531 0 76.855468-32.78125 79.785156-74.304687zm0 0" fill="#ffc0b3"/><path d="m81.359375 401.53125 123.152344 110.46875h109.804687l-171.605468-153.9375c-23.675782 9.679688-44.613282 24.660156-61.351563 43.46875zm0 0" fill="#fb695b"/><path d="m157.773438 371.574219-15.0625-13.511719c-23.675782 9.679688-44.613282 24.660156-61.351563 43.46875l24.617187 22.078125c13.179688-20.957031 30.902344-38.761719 51.796876-52.035156zm0 0" fill="#f85647"/><path d="m384.199219 194.0625c0 98.640625-79.96875 178.609375-178.609375 178.609375-98.644532 0-178.609375-79.96875-178.609375-178.609375 0-98.644531 79.964843-178.609375 178.609375-178.609375 98.640625 0 178.609375 79.964844 178.609375 178.609375zm0 0" fill="#ffddcf"/><path d="m68.1875 194.0625c0-91.671875 69.070312-167.203125 158.003906-177.417969-6.761718-.777343-13.632812-1.191406-20.601562-1.191406-98.644532 0-178.609375 79.964844-178.609375 178.609375 0 98.640625 79.964843 178.609375 178.609375 178.609375 6.96875 0 13.839844-.414063 20.601562-1.191406-88.933594-10.214844-158.003906-85.746094-158.003906-177.417969zm0 0" fill="#ffcbbe"/><path d="m394.621094 150.082031c-19.976563-85.890625-97.148438-150.082031-189.03125-150.082031-91.886719 0-169.058594 64.191406-189.035156 150.082031-9.925782 6.074219-16.554688 17.019531-16.554688 29.511719 0 19.09375 15.480469 34.574219 34.574219 34.574219 4.421875 0 8.644531-.839844 12.53125-2.351563 8.363281 6.804688 19.023437 10.886719 30.644531 10.886719 26.847656 0 48.609375-21.765625 48.609375-48.613281 0-1.40625-.082031-2.789063-.199219-4.164063 18.089844 14.609375 46.9375 24.0625 79.429688 24.0625 32.496094 0 61.339844-9.453125 79.433594-24.0625-.121094 1.375-.203126 2.761719-.203126 4.164063 0 26.847656 21.765626 48.613281 48.613282 48.613281 11.617187 0 22.28125-4.085937 30.644531-10.886719 3.886719 1.511719 8.109375 2.351563 12.527344 2.351563 19.09375 0 34.574219-15.480469 34.574219-34.574219 0-12.492188-6.628907-23.4375-16.558594-29.511719zm0 0" fill="#f4f4f4"/><path d="m52.734375 194.0625c0-100.050781 76.109375-182.652344 173.46875-192.96875-6.773437-.71875-13.652344-1.09375-20.613281-1.09375-91.886719 0-169.058594 64.191406-189.035156 150.082031-9.925782 6.074219-16.554688 17.019531-16.554688 29.511719 0 19.09375 15.480469 34.574219 34.574219 34.574219 4.421875 0 8.644531-.839844 12.53125-2.351563 2.164062 1.761719 4.488281 3.335938 6.9375 4.710938-.855469-7.375-1.308594-14.867188-1.308594-22.464844zm0 0" fill="#e3e3e3"/><path d="m389.910156 0c-3.285156 0-6.023437 2.535156-6.242187 5.8125-2.988281 44.820312-40.289063 80.246094-85.863281 80.246094-45.578126 0-82.875-35.425782-85.867188-80.246094-.214844-3.277344-2.953125-5.8125-6.238281-5.8125h-.21875c-3.28125 0-6.019531 2.535156-6.238281 5.8125-2.992188 44.820312-40.292969 80.246094-85.867188 80.246094s-82.875-35.425782-85.863281-80.246094c-.21875-3.277344-2.957031-5.8125-6.242188-5.8125-3.457031 0-6.261719 2.804688-6.261719 6.265625v144.914063h381.167969v-144.914063c-.003906-3.460937-2.808593-6.265625-6.265625-6.265625zm0 0" fill="#f4e74d"/><path d="m27.511719 5.8125c-.21875-3.277344-2.957031-5.8125-6.242188-5.8125-3.457031 0-6.261719 2.804688-6.261719 6.265625v144.914063h41.207032v-86.878907c-16.367188-14.558593-27.152344-35.25-28.703125-58.488281zm0 0" fill="#f1e12b"/><g fill="#454545"><path d="m205.589844 259.265625c-9.78125 0-18.890625-5.273437-23.769532-13.757813-2.0625-3.59375-.824218-8.179687 2.765626-10.242187 3.589843-2.0625 8.175781-.828125 10.238281 2.765625 2.210937 3.84375 6.335937 6.234375 10.765625 6.234375 4.425781 0 8.550781-2.390625 10.761718-6.234375 2.066407-3.589844 6.652344-4.828125 10.242188-2.761719 3.589844 2.0625 4.828125 6.648438 2.761719 10.238281-4.878907 8.484376-13.988281 13.757813-23.765625 13.757813zm0 0"/><path d="m271.199219 229.101562c-4.140625 0-7.5-3.355468-7.5-7.5v-11.695312c0-4.144531 3.359375-7.5 7.5-7.5 4.144531 0 7.5 3.355469 7.5 7.5v11.695312c0 4.144532-3.355469 7.5-7.5 7.5zm0 0"/><path d="m139.976562 229.101562c-4.140624 0-7.5-3.355468-7.5-7.5v-11.695312c0-4.144531 3.359376-7.5 7.5-7.5 4.144532 0 7.5 3.355469 7.5 7.5v11.695312c0 4.144532-3.355468 7.5-7.5 7.5zm0 0"/></g><path d="m277.050781 251.214844h-11.699219c-4.140624 0-7.5-3.355469-7.5-7.5 0-4.140625 3.359376-7.5 7.5-7.5h11.699219c4.140625 0 7.5 3.359375 7.5 7.5 0 4.144531-3.359375 7.5-7.5 7.5zm0 0" fill="#fb695b"/><path d="m145.824219 251.214844h-11.695313c-4.144531 0-7.5-3.355469-7.5-7.5 0-4.140625 3.355469-7.5 7.5-7.5h11.695313c4.144531 0 7.5 3.359375 7.5 7.5 0 4.144531-3.355469 7.5-7.5 7.5zm0 0" fill="#fb695b"/></svg>